<svg xmlns="http://www.w3.org/2000/svg" width="90" height="70.344" viewBox="0 0 90 70.344">
    <defs>
        <style>
            .cls-1{fill:#312782}.cls-2{clip-path:url(#clip-path)}.cls-3{opacity:.6}.cls-4{fill:#1f114c}.cls-5{fill:url(#linear-gradient)}
        </style>
        <clipPath id="clip-path">
            <path id="Path_21855" d="M125.535 363.706c12.082 0 18.727 1.1 23.223 2.938 12.183 4.975 21.149 17.03 21.574 30.2.4 12.373-4.87 25.234-15.533 31.93-8.647 5.43-19.539 4.908-29.389 5.11-5.025.1-24.244-.047-24.244-.047-4.315-3.452 5.623-5.752 7.781-7.365 3.147-2.351 7.68-7.932 11.333-8.917h13.81s8.568 0 12.413-4.419c8.246-9.475 8.1-24.045-2.989-29.851-6.047-3.167-18.848-3.427-18.848-3.427h-18.654a24.476 24.476 0 0 1-7.294-5.287c-2.888-3.41-8.3-7.9-11.656-10.869z" class="cls-1" data-name="Path 21855"/>
        </clipPath>
        <linearGradient id="linear-gradient" x1=".566" x2=".311" y1=".089" y2="1.096" gradientUnits="objectBoundingBox">
            <stop offset=".176" stop-color="#f60"/>
            <stop offset="1" stop-color="#c33"/>
        </linearGradient>
    </defs>
    <g id="Group_4541" data-name="Group 4541" transform="translate(-142 -166.828)">
        <g id="Group_3831" data-name="Group 3831" transform="translate(61.647 -196.752)">
            <path id="Path_21852" d="M125.535 363.706c12.082 0 18.727 1.1 23.223 2.938 12.183 4.975 21.149 17.03 21.574 30.2.4 12.373-4.87 25.234-15.533 31.93-8.647 5.43-19.539 4.908-29.389 5.11-5.025.1-24.244-.047-24.244-.047-4.315-3.452 5.623-5.752 7.781-7.365 3.147-2.351 7.68-7.932 11.333-8.917h13.81s8.568 0 12.413-4.419c8.246-9.475 8.1-24.045-2.989-29.851-6.047-3.167-18.848-3.427-18.848-3.427h-18.654a24.476 24.476 0 0 1-7.294-5.287c-2.888-3.41-8.3-7.9-11.656-10.869z" class="cls-1" data-name="Path 21852"/>
            <g id="Group_3830" class="cls-2" data-name="Group 3830">
                <g id="Group_3829" class="cls-3" data-name="Group 3829">
                    <path id="Path_21853" d="M127.12 417.559h-9.874c-3.6.971-8.127 6.125-11.23 8.443-2.128 1.59-6.995 5.263-6.123 6.021 1.391 1.209.058 2.59 1.644 2.59h9.36c.6-.585 2.463-2.283 3.067-2.867a156.864 156.864 0 0 0 13.156-14.187z" class="cls-4" data-name="Path 21853"/>
                    <path id="Path_21854" d="M86.494 363.706c3.279 2.9 5.761 7.787 8.584 11.121 2.622 3.1 3.366 5.287 7.4 5.287 3.467 0 7.131-.139 10.6-.118-5.431-5.4-11.451-11.516-16.29-16.29-.006 0-7.244-.006-10.294 0z" class="cls-4" data-name="Path 21854"/>
                </g>
            </g>
        </g>
        <path id="Path_21856" d="M124.385 396.774c.27.243-27.3-27.049-28.072-27.889-2.522-2.733-4.837-5.305-9.381-5.305a6.651 6.651 0 0 0-6 4.287c-1.71 4.1.646 7.892 3.56 11.182.726.821 16.482 16.314 21.909 22.019 1.454 1.529 4.082 3.049 3.681 5.379-.4 2.348-4.517 5.188-6.078 6.763-3.781 3.812-11.927 10.384-9.355 16.386a7.372 7.372 0 0 0 6.859 4.287c4.045 0 6.6-2.565 9.339-5.233 5.262-5.129 10.742-10.229 15.348-15.978 5.105-6.372 3.605-9.654-1.81-15.898z" class="cls-5" data-name="Path 21856" transform="translate(61.647 -196.752)"/>
    </g>
</svg>
