<svg id="Layer_1" data-name="Layer 1" xmlns="http://www.w3.org/2000/svg" viewBox="0 0 232 215.64"><defs><style>.cls-1{fill:#39b54a;}.cls-2{fill:#3c4650;}.cls-3{fill:#00aeef;}.cls-4{fill:#fff;}</style></defs><title>0121210</title><path class="cls-1" d="M56.26,72.44A8.4,8.4,0,0,1,53.59,66a8.19,8.19,0,0,1,2.67-6.4,10.36,10.36,0,0,1,7.2-2.4,10.42,10.42,0,0,1,7.13,2.4A8.1,8.1,0,0,1,73.32,66a8.4,8.4,0,0,1-2.67,6.47,10.19,10.19,0,0,1-7.2,2.47A10.18,10.18,0,0,1,56.26,72.44Zm1.27,79.61a7.5,7.5,0,0,1-2.33-5.93V94.65a7.3,7.3,0,0,1,2.33-5.87,8.79,8.79,0,0,1,5.93-2,9.05,9.05,0,0,1,6,2,7.2,7.2,0,0,1,2.4,5.87v51.47a7.4,7.4,0,0,1-2.4,5.93,8.87,8.87,0,0,1-6,2.07A8.61,8.61,0,0,1,57.52,152.05Z"/><path class="cls-2" d="M150.27,88.91a7.51,7.51,0,0,1,2.27,5.73v52.67q0,15.33-8.53,23.2t-25.2,7.87q-14.54,0-24.27-5.47-4.93-2.93-4.93-7.07a7.21,7.21,0,0,1,1.4-4.67,4.48,4.48,0,0,1,3.67-1.73,9.26,9.26,0,0,1,2.93.6q1.73.6,3.6,1.4a76.81,76.81,0,0,0,8.6,3.07,32.42,32.42,0,0,0,8.73,1.07q17.47,0,17.47-17.07V140a20.36,20.36,0,0,1-8.53,8.47,26.69,26.69,0,0,1-12.8,3,28.25,28.25,0,0,1-15.14-4.07A27.93,27.93,0,0,1,89.19,136,36.81,36.81,0,0,1,85.46,119a37.78,37.78,0,0,1,3.67-17A27.25,27.25,0,0,1,99.46,90.58a28.61,28.61,0,0,1,15.2-4.07,26.69,26.69,0,0,1,12.8,3A20.38,20.38,0,0,1,136,98V94.51a7.34,7.34,0,0,1,2.27-5.6,9.51,9.51,0,0,1,12,0Zm-18.74,44.41Q136,128.12,136,119t-4.47-14.4q-4.47-5.2-12.47-5.2t-12.4,5.2q-4.54,5.2-4.53,14.4t4.53,14.27q4.53,5.2,12.4,5.2T131.53,133.32Z"/><path class="cls-3" d="M170.8,72.44A8.4,8.4,0,0,1,168.14,66a8.19,8.19,0,0,1,2.67-6.4,11.9,11.9,0,0,1,14.34,0,8.1,8.1,0,0,1,2.73,6.4,8.4,8.4,0,0,1-2.67,6.47,11.74,11.74,0,0,1-14.4,0Zm1.27,79.61a7.5,7.5,0,0,1-2.33-5.93V94.65a7.3,7.3,0,0,1,2.33-5.87,8.79,8.79,0,0,1,5.93-2,9.05,9.05,0,0,1,6,2,7.2,7.2,0,0,1,2.4,5.87v51.47a7.4,7.4,0,0,1-2.4,5.93,8.87,8.87,0,0,1-6,2.07A8.61,8.61,0,0,1,172.07,152.05Z"/><path class="cls-3" d="M159.44,60.69a4.27,4.27,0,0,1-2.68-.94c-10.42-8.3-20.3-12.33-32.06-13.08a4.3,4.3,0,1,1,.55-8.58c13.44.86,25.16,5.61,36.87,14.94a4.3,4.3,0,0,1-2.68,7.66Z"/><path class="cls-1" d="M80.23,59.31a4.3,4.3,0,0,1-2.56-7.75c11.26-8.35,22.38-12.63,35-13.46a4.3,4.3,0,1,1,.56,8.58c-11,.73-20.41,4.36-30.42,11.79A4.28,4.28,0,0,1,80.23,59.31Z"/><circle class="cls-4" cx="120.67" cy="42.59" r="12.34"/><circle class="cls-2" cx="120.67" cy="42.59" r="8.63"/><path class="cls-1" d="M45.24,155.89a26.45,26.45,0,0,1,8.9-4,34.74,34.74,0,0,1,9.78-1.15,43,43,0,0,1,9.68,1.36,29.27,29.27,0,0,1,9,3.81,154.11,154.11,0,0,0-18.74-1.73,73.74,73.74,0,0,0-9.22.35C51.53,154.82,48.43,155.28,45.24,155.89Z"/><path class="cls-3" d="M159.34,155.89a26.45,26.45,0,0,1,8.9-4,34.74,34.74,0,0,1,9.78-1.15,43,43,0,0,1,9.68,1.36,29.27,29.27,0,0,1,9,3.81,154.11,154.11,0,0,0-18.74-1.73,73.74,73.74,0,0,0-9.22.35C165.63,154.82,162.53,155.28,159.34,155.89Z"/></svg>