<svg xmlns="http://www.w3.org/2000/svg" width="21" height="16" viewBox="0 0 21 16">
    <defs>
        <style>
            .cls-1{fill:#2DBB54}
        </style>
    </defs>
    <path id="archive-icon" d="M43.377 88.2h-8l-2-2h-6a1.971 1.971 0 0 0-2 2v12a1.971 1.971 0 0 0 2 2h16c1.127 0 3-.872 3-2v-10c0-1.127-1.877-2-3-2zm-3 7l-4 4c-.068.068.088.037 0 0s-1 .1-1 0v-2h-4c-.064 0 .045.045 0 0s0 .064 0 0v-4c0-.064-.045.045 0 0s-.064 0 0 0h4v-1a6.422 6.422 0 0 1 1-1c.088-.037-.068-.068 0 0l4 4c.045.045 0-.064 0 0s.045-.045 0 0z" class="cls-1" transform="translate(-25.377 -86.2)"/>
</svg>
